<svg xmlns="http://www.w3.org/2000/svg" viewBox="0 0 141.39 32.03"><title>l_ftg</title><g opacity="0.9"><rect width="32.03" height="32.03" fill="#0f215b"/></g><path d="M7.19,9h2.4v2.53H7.19V24.16H3.94V11.54H1.54V9h2.4V5H4a4.06,4.06,0,0,1,.47-1.63A4.7,4.7,0,0,1,5.51,2a4.79,4.79,0,0,1,1.54-.89A5.44,5.44,0,0,1,8.91.84l0.34,0,0.34,0V3.64L9.26,3.55a1.68,1.68,0,0,0-.32,0A1.73,1.73,0,0,0,7.73,4a1.45,1.45,0,0,0-.51,1.1V5.3h0V9Z" fill="#fff"/><path d="M16.5,16v3.71h0v0.21A1.45,1.45,0,0,0,17,21a1.78,1.78,0,0,0,1.25.47,1.65,1.65,0,0,0,.32,0l0.32-.09v2.77l-0.34,0-0.34,0a5.54,5.54,0,0,1-1.89-.32A4.78,4.78,0,0,1,14.83,23a4.68,4.68,0,0,1-1.06-1.33A4,4,0,0,1,13.29,20h0V11.55h-2.4V9h2.4V0.82H16.5V9h2.43v2.56H16.5V16Z" fill="#fff"/><path d="M30.48,8.61V27.36A3.91,3.91,0,0,1,30,28.94a4.51,4.51,0,0,1-1,1.28,4.94,4.94,0,0,1-1.5.86,5.21,5.21,0,0,1-1.81.32l-0.34,0-0.34,0V28.65a1.57,1.57,0,0,0,.64.12,1.7,1.7,0,0,0,1.2-.45,1.43,1.43,0,0,0,.49-1.09V27.05h0V23.8a5.75,5.75,0,0,1-2.36.51A5.29,5.29,0,0,1,23.13,24a4.94,4.94,0,0,1-1.5-.86,4,4,0,0,1-1-1.28,3.47,3.47,0,0,1-.37-1.58h0V12.5h0A3.2,3.2,0,0,1,20.63,11a4.32,4.32,0,0,1,1-1.27,4.74,4.74,0,0,1,1.49-.84A5.39,5.39,0,0,1,25,8.55,6.23,6.23,0,0,1,27.34,9V8.61h3.14ZM27,12.44a0.93,0.93,0,0,0-.19-0.56,1.82,1.82,0,0,0-.49-0.45,2.9,2.9,0,0,0-.68-0.32A2.31,2.31,0,0,0,24.94,11a1.72,1.72,0,0,0-1.17.42,1.3,1.3,0,0,0-.49,1v7.75a1.26,1.26,0,0,0,.49,1,1.76,1.76,0,0,0,1.17.41,2.59,2.59,0,0,0,.71-0.11,2.48,2.48,0,0,0,.68-0.3,1.8,1.8,0,0,0,.49-0.45A0.93,0.93,0,0,0,27,20.18V12.44Z" fill="#fff"/><path d="M39.44,3H49V5.56H42.21V8.24h6v2.52h-6v4.88H39.44V3Z" fill="#4d4d4d"/><path d="M54.45,3h2.77v12.6H54.45V3Z" fill="#4d4d4d"/><path d="M63.45,3H66l5.91,7.76V3h2.74v12.6H72.29l-6.1-8v8H63.45V3Z" fill="#4d4d4d"/><path d="M85.07,2.95h2.56L93,15.64h-2.9L89,12.82H83.65l-1.15,2.83H79.67ZM88,10.37L86.31,6.28l-1.67,4.09H88Z" fill="#4d4d4d"/><path d="M98,3h2.56l5.91,7.76V3h2.74v12.6h-2.36l-6.1-8v8H98V3Z" fill="#4d4d4d"/><path d="M114.79,9.38v0a6.41,6.41,0,0,1,6.57-6.52,6.5,6.5,0,0,1,5,1.94l-1.76,2a4.65,4.65,0,0,0-3.22-1.42,3.73,3.73,0,0,0-3.66,3.93v0a3.74,3.74,0,0,0,3.66,4,4.55,4.55,0,0,0,3.31-1.48l1.76,1.78a6.44,6.44,0,0,1-5.17,2.25A6.36,6.36,0,0,1,114.79,9.38Z" fill="#4d4d4d"/><path d="M131.71,3h9.51V5.51h-6.75V8.06h5.94v2.47h-5.94v2.65h6.84v2.47h-9.6V3Z" fill="#4d4d4d"/><path d="M39.34,26.6V22.7H38.4V21.25h0.94v-2H41v2h2V22.7H41v3.63a0.81,0.81,0,0,0,.91.92A2.28,2.28,0,0,0,43,27v1.39a3,3,0,0,1-1.53.38A1.9,1.9,0,0,1,39.34,26.6Z" fill="#4d4d4d"/><path d="M45.64,18.42h1.69v4a2.66,2.66,0,0,1,2.31-1.3,2.54,2.54,0,0,1,2.63,2.84v4.71H50.59v-4.2A1.55,1.55,0,0,0,49,22.63a1.65,1.65,0,0,0-1.67,1.83v4.17H45.64V18.42Z" fill="#4d4d4d"/><path d="M54.82,25v0a3.67,3.67,0,0,1,3.61-3.85c2.35,0,3.54,1.85,3.54,4,0,0.15,0,.31,0,0.48H56.52a2.06,2.06,0,0,0,2.13,1.88,2.69,2.69,0,0,0,2-.88l1,0.88a3.74,3.74,0,0,1-3,1.39A3.69,3.69,0,0,1,54.82,25Zm5.48-.55a1.92,1.92,0,0,0-1.88-1.95,2,2,0,0,0-1.92,1.95h3.8Z" fill="#4d4d4d"/><path d="M64.19,25v0a3.94,3.94,0,0,1,7.89,0v0a3.87,3.87,0,0,1-4,3.85A3.82,3.82,0,0,1,64.19,25Zm6.19,0v0a2.29,2.29,0,0,0-2.27-2.38,2.22,2.22,0,0,0-2.23,2.35v0a2.29,2.29,0,0,0,2.26,2.38A2.23,2.23,0,0,0,70.38,25Z" fill="#4d4d4d"/><path d="M74.7,21.25H76.4v1.67A2.62,2.62,0,0,1,79,21.11V22.9h-0.1c-1.48,0-2.52,1-2.52,2.93v2.82H74.7v-7.4Z" fill="#4d4d4d"/><path d="M81.16,30.48l0.57-1.26a2.09,2.09,0,0,0,1,.28,1.08,1.08,0,0,0,1.05-.85l-3.08-7.4H82.5l2.1,5.49,1.92-5.49h1.76l-2.94,7.61c-0.59,1.51-1.25,2.07-2.44,2.07A3.45,3.45,0,0,1,81.16,30.48Z" fill="#4d4d4d"/><path d="M94,24.47v0a4.28,4.28,0,0,1,4.33-4.34,4.53,4.53,0,0,1,3.23,1.14l-0.94,1.12a3.29,3.29,0,0,0-2.35-.9,2.84,2.84,0,0,0-2.72,3v0a2.8,2.8,0,0,0,2.85,3,3.43,3.43,0,0,0,2-.64V25.24H98.31V24h3.57v3.53a5.35,5.35,0,0,1-3.5,1.31A4.17,4.17,0,0,1,94,24.47Z" fill="#4d4d4d"/><path d="M104.59,20.25h3.74a3.38,3.38,0,0,1,2.42.84,2.54,2.54,0,0,1,.7,1.81v0a2.52,2.52,0,0,1-2,2.54l2.27,3.18H110l-2.06-2.93h-1.85v2.93h-1.48v-8.4Zm3.63,4.16a1.49,1.49,0,0,0,1.73-1.4v0c0-.9-0.65-1.39-1.74-1.39h-2.15v2.82h2.16Z" fill="#4d4d4d"/><path d="M113.67,24.47v0a4.39,4.39,0,0,1,8.78,0v0A4.39,4.39,0,0,1,113.67,24.47Zm7.23,0v0a2.88,2.88,0,0,0-2.85-3,2.84,2.84,0,0,0-2.83,3v0a2.88,2.88,0,0,0,2.85,3A2.84,2.84,0,0,0,120.9,24.47Z" fill="#4d4d4d"/><path d="M124.89,25.08V20.25h1.48V25c0,1.56.8,2.4,2.12,2.4s2.11-.79,2.11-2.34V20.25h1.48V25c0,2.51-1.42,3.77-3.61,3.77S124.89,27.51,124.89,25.08Z" fill="#4d4d4d"/><path d="M134.89,20.25h3.31c2,0,3.19,1.12,3.19,2.81v0c0,1.88-1.51,2.87-3.36,2.87h-1.67v2.7h-1.48v-8.4Zm3.19,4.37a1.58,1.58,0,0,0,1.81-1.5v0a1.53,1.53,0,0,0-1.81-1.5h-1.71v3h1.71Z" fill="#4d4d4d"/></svg>