<svg xmlns="http://www.w3.org/2000/svg" viewBox="0 0 169.09 32.03"><title>l_ftg</title><g opacity="0.9"><rect width="32.03" height="32.03" fill="#89c23f"/></g><path d="M7.19,9h2.4v2.53H7.19V24.16H3.94V11.54H1.54V9h2.4V5H4a4.06,4.06,0,0,1,.47-1.63A4.7,4.7,0,0,1,5.51,2a4.79,4.79,0,0,1,1.54-.89A5.44,5.44,0,0,1,8.91.84l0.34,0,0.34,0V3.64L9.26,3.55a1.68,1.68,0,0,0-.32,0A1.73,1.73,0,0,0,7.73,4a1.45,1.45,0,0,0-.51,1.1V5.3h0V9Z" fill="#fff"/><path d="M16.5,16v3.71h0v0.21A1.45,1.45,0,0,0,17,21a1.78,1.78,0,0,0,1.25.47,1.65,1.65,0,0,0,.32,0l0.32-.09v2.77l-0.34,0-0.34,0a5.54,5.54,0,0,1-1.89-.32A4.78,4.78,0,0,1,14.83,23a4.68,4.68,0,0,1-1.06-1.33A4,4,0,0,1,13.29,20h0V11.55h-2.4V9h2.4V0.82H16.5V9h2.43v2.56H16.5V16Z" fill="#fff"/><path d="M30.48,8.61V27.36A3.91,3.91,0,0,1,30,28.94a4.51,4.51,0,0,1-1,1.28,4.94,4.94,0,0,1-1.5.86,5.21,5.21,0,0,1-1.81.32l-0.34,0-0.34,0V28.65a1.57,1.57,0,0,0,.64.12,1.7,1.7,0,0,0,1.2-.45,1.43,1.43,0,0,0,.49-1.09V27.05h0V23.8a5.75,5.75,0,0,1-2.36.51A5.29,5.29,0,0,1,23.13,24a4.94,4.94,0,0,1-1.5-.86,4,4,0,0,1-1-1.28,3.47,3.47,0,0,1-.37-1.58h0V12.5h0A3.2,3.2,0,0,1,20.63,11a4.32,4.32,0,0,1,1-1.27,4.74,4.74,0,0,1,1.49-.84A5.39,5.39,0,0,1,25,8.55,6.23,6.23,0,0,1,27.34,9V8.61h3.14ZM27,12.44a0.93,0.93,0,0,0-.19-0.56,1.82,1.82,0,0,0-.49-0.45,2.9,2.9,0,0,0-.68-0.32A2.31,2.31,0,0,0,24.94,11a1.72,1.72,0,0,0-1.17.42,1.3,1.3,0,0,0-.49,1v7.75a1.26,1.26,0,0,0,.49,1,1.76,1.76,0,0,0,1.17.41,2.59,2.59,0,0,0,.71-0.11,2.48,2.48,0,0,0,.68-0.3,1.8,1.8,0,0,0,.49-0.45A0.93,0.93,0,0,0,27,20.18V12.44Z" fill="#fff"/><path d="M38.06,4.2h7.2V6.09H40.14v2h4.51V10H40.14v3.66H38.06V4.2Z" fill="#fff"/><path d="M47.42,4.2H49.5v9.45H47.42V4.2Z" fill="#fff"/><path d="M52.26,4.2h1.92L58.61,10V4.2h2.05v9.45H58.89l-4.58-6v6H52.26V4.2Z" fill="#fff"/><path d="M66.57,4.13h1.92l4.05,9.52H70.37L69.5,11.54h-4l-0.86,2.12H62.52ZM68.76,9.7L67.51,6.63,66.25,9.7h2.51Z" fill="#fff"/><path d="M74.4,4.2h1.92L80.75,10V4.2H82.8v9.45H81l-4.58-6v6H74.4V4.2Z" fill="#fff"/><path d="M85.05,9v0A4.8,4.8,0,0,1,90,4,4.88,4.88,0,0,1,93.71,5.5L92.39,7A3.49,3.49,0,0,0,90,6,2.8,2.8,0,0,0,87.23,8.9v0a2.81,2.81,0,0,0,2.74,3,3.41,3.41,0,0,0,2.48-1.11l1.32,1.34a4.83,4.83,0,0,1-3.88,1.69A4.77,4.77,0,0,1,85.05,9Z" fill="#fff"/><path d="M95.84,4.2H103V6.05H97.91V8h4.46V9.82H97.91v2H103v1.85h-7.2V4.2Z" fill="#fff"/><path d="M111.95,6.12h-2.88V4.2h7.83V6.12H114v7.54h-2.08V6.12Z" fill="#fff"/><path d="M118.9,4.2H121V7.94h3.84V4.2h2.08v9.45h-2.08V9.86H121v3.79H118.9V4.2Z" fill="#fff"/><path d="M129.56,4.2h7.13V6.05h-5.06V8h4.46V9.82h-4.46v2h5.13v1.85h-7.2V4.2Z" fill="#fff"/><path d="M138.59,9v0a5,5,0,0,1,10,0v0A5,5,0,0,1,138.59,9Zm7.87,0v0a2.87,2.87,0,0,0-2.86-3,2.83,2.83,0,0,0-2.84,2.94v0a2.87,2.87,0,0,0,2.86,3A2.83,2.83,0,0,0,146.47,9Z" fill="#fff"/><path d="M150.89,4.2h4.32a3.77,3.77,0,0,1,2.75,1,3,3,0,0,1,.81,2.16v0a2.94,2.94,0,0,1-2,2.93l2.31,3.38h-2.43l-2-3H153v3h-2.08V4.2Zm4.19,4.59a1.37,1.37,0,0,0,1.59-1.34v0A1.37,1.37,0,0,0,155,6.08H153V8.79h2.11Z" fill="#fff"/><path d="M163.38,9.93L159.75,4.2h2.43L164.44,8l2.3-3.79h2.36l-3.63,5.69v3.77h-2.08V9.93Z" fill="#fff"/><path d="M37.72,23.46v0a4.82,4.82,0,0,1,4.88-4.89,5.1,5.1,0,0,1,3.63,1.28l-1.05,1.26a3.7,3.7,0,0,0-2.65-1,3.2,3.2,0,0,0-3.07,3.34v0a3.16,3.16,0,0,0,3.21,3.38A3.86,3.86,0,0,0,45,26.09V24.32H42.54V22.88h4v4a6,6,0,0,1-3.94,1.47A4.69,4.69,0,0,1,37.72,23.46Z" fill="#fff"/><path d="M49.13,18.7h4.21a3.81,3.81,0,0,1,2.73.95,2.85,2.85,0,0,1,.78,2v0a2.84,2.84,0,0,1-2.25,2.86l2.55,3.58h-2l-2.32-3.29H50.79v3.29H49.13V18.7Zm4.09,4.69a1.67,1.67,0,0,0,1.94-1.58v0c0-1-.73-1.57-2-1.57H50.79v3.17h2.43Z" fill="#fff"/><path d="M58.88,23.46v0a4.94,4.94,0,0,1,9.88,0v0A4.94,4.94,0,0,1,58.88,23.46Zm8.14,0v0a3.24,3.24,0,0,0-3.21-3.36,3.19,3.19,0,0,0-3.19,3.34v0a3.24,3.24,0,0,0,3.21,3.36A3.19,3.19,0,0,0,67,23.46Z" fill="#fff"/><path d="M71,24.14V18.7h1.66v5.37c0,1.76.9,2.7,2.39,2.7s2.38-.89,2.38-2.63V18.7h1.66v5.36c0,2.82-1.59,4.24-4.06,4.24S71,26.89,71,24.14Z" fill="#fff"/><path d="M81.8,18.7h3.73c2.2,0,3.59,1.26,3.59,3.16v0c0,2.12-1.7,3.23-3.78,3.23H83.46v3H81.8V18.7Zm3.59,4.92a1.78,1.78,0,0,0,2-1.69v0c0-1.11-.8-1.69-2-1.69H83.46v3.4h1.93Z" fill="#fff"/></svg>