<svg xmlns="http://www.w3.org/2000/svg" viewBox="0 0 141.88 32.03"><title>l_ftg</title><g opacity="0.9"><rect width="32.03" height="32.03" fill="#0f215b"/></g><path d="M7.19,9h2.4v2.53H7.19V24.16H3.94V11.54H1.54V9h2.4V5H4a4.06,4.06,0,0,1,.47-1.63A4.7,4.7,0,0,1,5.51,2a4.79,4.79,0,0,1,1.54-.89A5.44,5.44,0,0,1,8.91.84l0.34,0,0.34,0V3.64L9.26,3.55a1.68,1.68,0,0,0-.32,0A1.73,1.73,0,0,0,7.73,4a1.45,1.45,0,0,0-.51,1.1V5.3h0V9Z" fill="#fff"/><path d="M16.5,16v3.71h0v0.21A1.45,1.45,0,0,0,17,21a1.78,1.78,0,0,0,1.25.47,1.65,1.65,0,0,0,.32,0l0.32-.09v2.77l-0.34,0-0.34,0a5.54,5.54,0,0,1-1.89-.32A4.78,4.78,0,0,1,14.83,23a4.68,4.68,0,0,1-1.06-1.33A4,4,0,0,1,13.29,20h0V11.55h-2.4V9h2.4V0.82H16.5V9h2.43v2.56H16.5V16Z" fill="#fff"/><path d="M30.48,8.61V27.36A3.91,3.91,0,0,1,30,28.94a4.51,4.51,0,0,1-1,1.28,4.94,4.94,0,0,1-1.5.86,5.21,5.21,0,0,1-1.81.32l-0.34,0-0.34,0V28.65a1.57,1.57,0,0,0,.64.12,1.7,1.7,0,0,0,1.2-.45,1.43,1.43,0,0,0,.49-1.09V27.05h0V23.8a5.75,5.75,0,0,1-2.36.51A5.29,5.29,0,0,1,23.13,24a4.94,4.94,0,0,1-1.5-.86,4,4,0,0,1-1-1.28,3.47,3.47,0,0,1-.37-1.58h0V12.5h0A3.2,3.2,0,0,1,20.63,11a4.32,4.32,0,0,1,1-1.27,4.74,4.74,0,0,1,1.49-.84A5.39,5.39,0,0,1,25,8.55,6.23,6.23,0,0,1,27.34,9V8.61h3.14ZM27,12.44a0.93,0.93,0,0,0-.19-0.56,1.82,1.82,0,0,0-.49-0.45,2.9,2.9,0,0,0-.68-0.32A2.31,2.31,0,0,0,24.94,11a1.72,1.72,0,0,0-1.17.42,1.3,1.3,0,0,0-.49,1v7.75a1.26,1.26,0,0,0,.49,1,1.76,1.76,0,0,0,1.17.41,2.59,2.59,0,0,0,.71-0.11,2.48,2.48,0,0,0,.68-0.3,1.8,1.8,0,0,0,.49-0.45A0.93,0.93,0,0,0,27,20.18V12.44Z" fill="#fff"/><path d="M39.44,3H49V5.56H42.21V8.24h6v2.52h-6v4.88H39.44V3Z" fill="#4d4d4d"/><path d="M54.45,3h2.77v12.6H54.45V3Z" fill="#4d4d4d"/><path d="M63.45,3H66l5.91,7.76V3h2.74v12.6H72.29l-6.1-8v8H63.45V3Z" fill="#4d4d4d"/><path d="M85.07,2.95h2.56L93,15.64h-2.9L89,12.82H83.65l-1.15,2.83H79.67ZM88,10.37L86.31,6.28l-1.67,4.09H88Z" fill="#4d4d4d"/><path d="M98,3h2.56l5.91,7.76V3h2.74v12.6h-2.36l-6.1-8v8H98V3Z" fill="#4d4d4d"/><path d="M114.79,9.38v0a6.41,6.41,0,0,1,6.57-6.52,6.5,6.5,0,0,1,5,1.94l-1.76,2a4.65,4.65,0,0,0-3.22-1.42,3.73,3.73,0,0,0-3.66,3.93v0a3.74,3.74,0,0,0,3.66,4,4.55,4.55,0,0,0,3.31-1.48l1.76,1.78a6.44,6.44,0,0,1-5.17,2.25A6.36,6.36,0,0,1,114.79,9.38Z" fill="#4d4d4d"/><path d="M131.71,3h9.51V5.51h-6.75V8.06h5.94v2.47h-5.94v2.65h6.84v2.47h-9.6V3Z" fill="#4d4d4d"/><path d="M40.67,28.77a2.11,2.11,0,0,1-1.37-.39,1.3,1.3,0,0,1-.48-1.06,3,3,0,0,1,.13-0.85l1-3.75H39l0.39-1.46h0.94l0.55-2h1.69l-0.55,2h2l-0.39,1.46h-2l-1,3.57a1.92,1.92,0,0,0,0,.22,1.61,1.61,0,0,0,0,.2,0.59,0.59,0,0,0,.74.57A2.75,2.75,0,0,0,42.45,27L42.06,28.5A3.34,3.34,0,0,1,40.67,28.77Z" fill="#006837"/><path d="M47.36,18.42h1.69l-1,3.79a5.3,5.3,0,0,1,1-.78,2.34,2.34,0,0,1,1.25-.33,2.25,2.25,0,0,1,1.65.59,2.16,2.16,0,0,1,.61,1.62,3.22,3.22,0,0,1-.07.64q-0.07.34-.15,0.66l-1.06,4H49.56l1.09-4.09a2.44,2.44,0,0,0,.08-0.38,2.66,2.66,0,0,0,0-.36A1.09,1.09,0,0,0,50.43,23a1.38,1.38,0,0,0-1-.3,1.79,1.79,0,0,0-1.26.51,2.77,2.77,0,0,0-.77,1.33l-1.12,4.15H44.63Z" fill="#006837"/><path d="M56.35,25.56a1.93,1.93,0,0,0,.5,1.35,1.86,1.86,0,0,0,1.42.51,2.62,2.62,0,0,0,1-.18,3.89,3.89,0,0,0,.92-0.54L61,27.79a5.08,5.08,0,0,1-1.22.73,4.19,4.19,0,0,1-1.65.29,4.09,4.09,0,0,1-1.39-.22,2.91,2.91,0,0,1-1.06-.64,2.87,2.87,0,0,1-.67-1,3.62,3.62,0,0,1-.24-1.34A4.41,4.41,0,0,1,55.06,24a4.6,4.6,0,0,1,2.27-2.47,4,4,0,0,1,1.76-.39,3.3,3.3,0,0,1,1.26.22,2.72,2.72,0,0,1,.92.61,2.57,2.57,0,0,1,.57.91A3.21,3.21,0,0,1,62,24a3.82,3.82,0,0,1-.08.79,5.39,5.39,0,0,1-.24.8H56.35Zm4-1.16a1.45,1.45,0,0,0,.07-0.5,1.5,1.5,0,0,0-.35-1A1.38,1.38,0,0,0,59,22.48a2.28,2.28,0,0,0-1.51.54,3,3,0,0,0-.92,1.38h3.84Z" fill="#006837"/><path d="M67.54,28.81a3.87,3.87,0,0,1-1.44-.25A3.17,3.17,0,0,1,65,27.85a3.12,3.12,0,0,1-.7-1.07,3.6,3.6,0,0,1-.25-1.34,4.09,4.09,0,0,1,.34-1.62,4.51,4.51,0,0,1,.92-1.39,4.62,4.62,0,0,1,1.37-1,3.94,3.94,0,0,1,1.68-.36,3.87,3.87,0,0,1,1.44.25,3.18,3.18,0,0,1,1.09.71,3.13,3.13,0,0,1,.7,1.08,3.66,3.66,0,0,1,.25,1.35,4,4,0,0,1-.34,1.62,4.6,4.6,0,0,1-.93,1.39,4.51,4.51,0,0,1-1.37,1A4,4,0,0,1,67.54,28.81Zm0.1-1.47a2,2,0,0,0,1-.25,2.86,2.86,0,0,0,.81-0.65,3.1,3.1,0,0,0,.54-0.9,2.77,2.77,0,0,0,.2-1,1.93,1.93,0,0,0-.52-1.45,1.87,1.87,0,0,0-1.36-.51,2.07,2.07,0,0,0-1,.25,2.82,2.82,0,0,0-.81.66,3.08,3.08,0,0,0-.53.91,2.82,2.82,0,0,0-.19,1,1.93,1.93,0,0,0,.52,1.45A1.87,1.87,0,0,0,67.63,27.34Z" fill="#006837"/><path d="M75.43,21.25h1.69l-0.43,1.67a5.23,5.23,0,0,1,1.36-1.38,2.69,2.69,0,0,1,1.74-.43L79.31,22.9h-0.1a3.18,3.18,0,0,0-1.07.18,2.92,2.92,0,0,0-.94.55,3.83,3.83,0,0,0-.76.93,5.3,5.3,0,0,0-.55,1.33l-0.74,2.74H73.46Z" fill="#006837"/><path d="M81,30.92a2.88,2.88,0,0,1-.92-0.13,3.08,3.08,0,0,1-.74-0.37l0.9-1.25a1.83,1.83,0,0,0,.46.23,1.5,1.5,0,0,0,.5.09,1.19,1.19,0,0,0,.61-0.17,2.46,2.46,0,0,0,.65-0.66l-1.08-7.42h1.74l0.62,5.47L87,21.25H88.8L84,28.85a5.54,5.54,0,0,1-1.45,1.6A2.84,2.84,0,0,1,81,30.92Z" fill="#006837"/><path d="M94.52,24.47v0a4.28,4.28,0,0,1,4.33-4.34,4.53,4.53,0,0,1,3.23,1.14l-0.94,1.12a3.29,3.29,0,0,0-2.35-.9,2.84,2.84,0,0,0-2.72,3v0a2.8,2.8,0,0,0,2.85,3,3.43,3.43,0,0,0,2-.64V25.24H98.8V24h3.57v3.53a5.35,5.35,0,0,1-3.5,1.31A4.17,4.17,0,0,1,94.52,24.47Z" fill="#4d4d4d"/><path d="M105.08,20.25h3.74a3.38,3.38,0,0,1,2.42.84,2.54,2.54,0,0,1,.7,1.81v0a2.52,2.52,0,0,1-2,2.54l2.27,3.18h-1.74l-2.06-2.93h-1.85v2.93h-1.48v-8.4Zm3.63,4.16a1.49,1.49,0,0,0,1.73-1.4v0c0-.9-0.65-1.39-1.74-1.39h-2.15v2.82h2.16Z" fill="#4d4d4d"/><path d="M114.16,24.47v0a4.39,4.39,0,0,1,8.78,0v0A4.39,4.39,0,0,1,114.16,24.47Zm7.23,0v0a2.88,2.88,0,0,0-2.85-3,2.84,2.84,0,0,0-2.83,3v0a2.88,2.88,0,0,0,2.85,3A2.84,2.84,0,0,0,121.4,24.47Z" fill="#4d4d4d"/><path d="M125.38,25.08V20.25h1.48V25c0,1.56.8,2.4,2.12,2.4s2.11-.79,2.11-2.34V20.25h1.48V25c0,2.51-1.42,3.77-3.61,3.77S125.38,27.51,125.38,25.08Z" fill="#4d4d4d"/><path d="M135.38,20.25h3.31c2,0,3.19,1.12,3.19,2.81v0c0,1.88-1.51,2.87-3.36,2.87h-1.67v2.7h-1.48v-8.4Zm3.19,4.37a1.58,1.58,0,0,0,1.81-1.5v0a1.53,1.53,0,0,0-1.81-1.5h-1.71v3h1.71Z" fill="#4d4d4d"/></svg>